<?xml version="1.0" encoding="utf-8"?>
<!-- Generator: Adobe Illustrator 16.0.4, SVG Export Plug-In . SVG Version: 6.00 Build 0)  -->
<!DOCTYPE svg PUBLIC "-//W3C//DTD SVG 1.1//EN" "http://www.w3.org/Graphics/SVG/1.1/DTD/svg11.dtd">
<svg version="1.1" id="Layer_1" xmlns="http://www.w3.org/2000/svg" xmlns:xlink="http://www.w3.org/1999/xlink" x="0px" y="0px"
	 width="1000px" height="5232.516px" viewBox="0 0 1000 5232.516" enable-background="new 0 0 1000 5232.516" xml:space="preserve">
<g>
	<path d="M107.78,219.823H12.756v-17.569l23.261-20.292V52.542l-28.21-7.424l9.899-19.797h95.024v17.57L89.221,63.43v129.173
		l28.458,7.424L107.78,219.823z"/>
	<path d="M299.309,219.823h-61.864v-76.465c0-14.105-3.464-19.548-13.857-19.548c-5.692,0-13.116,1.237-20.786,5.196v64.091
		l22.271,6.929l-9.898,19.796h-83.889v-17.569l22.023-19.302v-48.254l-22.023-14.353v-17.569l57.163-22.024l10.394,26.725
		l27.963-22.518c4.207-1.238,9.898-1.98,16.084-1.98c26.973,0,44.047,14.847,44.047,38.108v72.01l22.271,6.929L299.309,219.823z"/>
	<path d="M407.938,200.027l-9.898,19.796h-83.888v-17.569l22.023-19.302V57.738l-22.023-14.353V25.816l52.213-22.024h19.302v189.305
		L407.938,200.027z M487.125,219.823h-56.667l-36.625-66.813l41.573-31.922l-33.902-15.837l9.898-19.796h78.939v17.569
		l-47.512,37.861l29.2,49.492l24.993,9.651L487.125,219.823z"/>
	<path d="M674.94,219.823h-61.865v-76.465c0-14.105-3.464-19.548-13.857-19.548c-5.691,0-13.115,1.237-20.787,5.196v64.091
		l22.272,6.929l-9.898,19.796h-83.889v-17.569l22.023-19.302v-48.254l-22.023-14.353v-17.569l57.162-22.024l10.394,26.725
		l27.963-22.518c4.206-1.238,9.898-1.98,16.085-1.98c26.973,0,44.048,14.847,44.048,38.108v72.01l22.271,6.929L674.94,219.823z"/>
	<path d="M855.579,219.823h-61.864v-18.559l-24.004,19.301c-4.207,1.238-9.897,1.98-16.085,1.98
		c-26.973,0-44.047-14.847-44.047-38.108v-49.245l-22.024-12.62v-17.569l52.215-22.024h19.301v79.187
		c0,14.105,3.464,19.549,13.858,19.549c5.69,0,13.114-1.237,20.786-5.197v-41.326l-22.023-12.62v-17.569l52.214-22.024h19.302
		v110.119l22.271,6.929L855.579,219.823z"/>
	<path d="M966.685,220.318c-8.908,1.732-17.074,1.979-23.756,1.979c-34.644,0-49.491-14.105-49.491-44.047v-65.329h-26.726V97.826
		l56.915-59.637h19.302v54.688h44.543v20.044h-44.543v60.875c0,10.641,6.929,15.095,19.302,15.095
		c6.682,0,12.125-1.237,22.024-5.196l7.424,16.827L966.685,220.318z"/>
</g>
<g>
	<path d="M191.868,413.062h-85.332v-14.634l24.528-12.779l-10.512-25.97H60.16l-8.245,21.023l28.856,15.871l-8.245,16.489H3.685
		v-14.634L27.8,380.495L77.268,257.65l44.108-10.512l57.3,139.747l21.436,9.688L191.868,413.062z M90.047,284.857l-22.054,55.239
		h44.521L90.047,284.857z"/>
	<path d="M345.214,413.062h-51.529v-63.69c0-11.749-2.886-16.283-11.542-16.283c-4.741,0-10.924,1.031-17.314,4.329v53.384
		l18.551,5.771l-8.245,16.489h-69.874v-14.634l18.345-16.077v-40.192l-18.345-11.955v-14.634l47.613-18.344l8.657,22.26
		l23.292-18.756c3.504-1.031,8.245-1.649,13.397-1.649c22.466,0,36.688,12.367,36.688,31.742v59.98l18.55,5.771L345.214,413.062z"/>
	<path d="M437.756,413.474c-7.42,1.443-14.222,1.649-19.787,1.649c-28.856,0-41.223-11.749-41.223-36.688V324.02h-22.261v-12.573
		l47.407-49.674h16.077v45.552h37.101v16.695h-37.101v50.705c0,8.863,5.771,12.573,16.077,12.573c5.565,0,10.1-1.03,18.344-4.328
		l6.184,14.016L437.756,413.474z"/>
	<path d="M537.721,413.062h-69.874v-14.634l18.344-16.077v-40.192l-18.344-11.955v-14.634l43.491-18.344h16.077v93.577l18.55,5.771
		L537.721,413.062z M476.092,260.124c0-14.016,17.52-25.352,30.918-25.352c14.016,0,23.703,9.894,23.703,22.26
		c0,13.81-17.521,25.146-30.917,25.146C486.191,282.178,476.092,272.491,476.092,260.124z"/>
	<path d="M693.335,465.415h-86.362v-14.634l32.772-13.604v-38.956l-19.169,15.252c-5.771,1.443-11.336,1.649-15.871,1.649
		c-27.619,0-47.406-23.497-47.406-53.178c0-35.04,35.04-62.865,62.041-62.865c13.191,0,24.939,3.71,34.421,9.688l11.131-9.275
		h16.077v144.693l20.611,4.741L693.335,465.415z M639.745,376.991v-33.391c-1.442-9.069-9.275-16.901-24.115-16.901
		c-9.894,0-15.047,9.275-15.047,25.352c0,15.871,6.39,29.062,18.757,29.062C626.348,381.114,633.149,379.877,639.745,376.991z"/>
	<path d="M841.735,413.062h-51.529v-15.458l-19.993,16.077c-3.504,1.031-8.244,1.649-13.397,1.649
		c-22.467,0-36.688-12.367-36.688-31.742V342.57l-18.345-10.512v-14.634l43.491-18.344h16.076v65.957
		c0,11.749,2.886,16.283,11.543,16.283c4.74,0,10.924-1.031,17.313-4.329V342.57l-18.344-10.512v-14.634l43.49-18.344h16.077v91.722
		l18.55,5.771L841.735,413.062z"/>
	<path d="M984.158,413.062H932.63v-17.932l-23.291,18.344c-3.092,1.237-7.421,1.649-10.306,1.649
		c-30.712,0-39.781-18.55-39.781-34.833c0-10.924,6.596-21.848,18.551-30.917h54.827c-0.825-12.573-9.688-18.344-20.405-18.344
		c-8.451,0-21.437,2.268-41.636,8.657l-6.184-14.016l28.238-22.673c10.1-3.504,19.374-3.916,27.207-3.916
		c33.597,0,54.002,14.84,54.002,44.109v46.17l18.551,7.214L984.158,413.062z M932.63,374.105v-8.039H901.3
		c-1.236,2.268-1.854,3.71-1.854,6.596c0,5.359,4.534,8.451,12.366,8.451C916.553,381.114,923.148,379.671,932.63,374.105z"/>
</g>
<g>
	<path d="M236.688,1108.292h-67.383V988.776c0-26.245-7.092-35.109-27.661-35.109c-13.478,0-27.664,2.836-50.36,20.568v107.459
		l31.918,12.412l-7.093,14.186H17.163v-10.994l31.563-24.825V854.364l-31.563-21.988v-10.994l60.644-22.696h13.478v158.882
		l48.586-38.303c6.383-2.482,12.058-2.836,19.506-2.836c32.273,0,52.487,21.278,52.487,54.615v110.648l31.919,12.414
		L236.688,1108.292z"/>
	<path d="M456.924,1108.292h-67.383v-30.854l-40.076,31.563c-5.318,2.128-12.767,2.837-17.73,2.837
		c-44.332,0-57.808-27.308-57.808-51.778c0-17.024,12.768-34.047,35.464-48.587h80.151v-22.696
		c0-32.629-19.861-42.203-45.749-42.203c-10.994,0-28.018,4.965-53.907,26.599l-10.64-13.477l51.07-40.431
		c12.414-2.481,24.471-2.837,34.047-2.837c42.557,0,67.736,21.279,67.736,61.709v103.557l31.919,12.414L456.924,1108.292z
		 M389.541,1061.833v-35.819h-62.772c-6.739,7.802-8.512,15.25-8.512,23.763c0,16.668,9.221,31.918,24.825,31.918
		C353.368,1081.692,368.262,1078.856,389.541,1061.833z"/>
	<path d="M838.168,986.647c0,66.675-50.005,125.191-106.749,125.191c-46.458,0-81.568-39.365-81.568-91.499
		c0-51.425,53.907-103.911,106.748-103.911c4.257,0,8.513,0.354,13.477,0.709c-10.64-18.797-24.471-36.175-40.784-51.068
		l-62.064,37.592l-7.446-12.768l57.452-34.755c-7.091-5.674-14.895-10.64-22.696-15.251c-30.499-13.477-43.977-15.958-70.575-15.958
		c-30.146,0-57.809,26.243-57.809,67.737v37.947h60.646v14.54h-60.646v133.702l49.651,15.25l-7.094,14.186H492.033v-10.994
		l31.563-24.825V945.154h-41.848v-14.54h41.848v-17.377c0-63.128,62.418-118.098,128.028-118.098h36.529
		c24.47,7.449,47.521,20.569,68.092,37.238l61.709-37.238l7.801,12.768l-57.808,34.755
		C809.797,881.672,838.168,935.933,838.168,986.647z M793.837,1006.862c0-20.924-3.546-41.493-10.639-60.644h-47.169
		c-26.598,0-40.074,19.15-40.074,57.099c0,47.521,22.342,78.73,56.033,78.73C780.715,1082.048,793.837,1058.641,793.837,1006.862z"
		/>
	<path d="M981.449,1108.292h-98.947v-10.994l31.564-24.824V968.915l-31.564-21.988v-10.994l60.644-22.696h13.478v168.456
		l31.919,12.414L981.449,1108.292z M902.007,838.051c0-17.376,18.087-31.208,31.919-31.208c14.539,0,24.472,12.058,24.472,27.307
		c0,17.377-18.088,31.209-31.918,31.209C912.292,865.358,902.007,853.302,902.007,838.051z"/>
</g>
<g>
	<path d="M253.063,744.607h-87.356v-8.908l27.012-20.977l-22.126-53.159h-96.55l-23.563,54.31l50.574,17.24l-5.747,11.494H7.952
		v-8.908l27.011-21.265l81.32-186.491l29.885-14.655l83.906,202.297l28.735,17.528L253.063,744.607z M123.467,547.771L79.79,648.632
		h85.344L123.467,547.771z"/>
	<path d="M415.132,609.265h79.596v10.92l-92.239,89.941h67.527l12.355-23.564l8.621,2.874v60.345l-15.804-5.175H359.386v-10.918
		l92.815-89.94h-82.757v-10.92l79.883-79.883c-25.861-7.184-50.285-18.678-76.722-18.678c-23.275,0-36.493,15.517-36.493,36.78
		v173.562h-62.93v-8.91l27.012-21.264v-131.32c0-29.596,43.389-70.113,73.562-70.113c36.206,0,69.54,5.747,120.974,5.747v8.909
		L415.132,609.265z"/>
	<path d="M705.935,744.607H533.523v-8.908l27.012-21.265V540.301l-29.885-10.058l5.748-11.494h166.663l15.517-5.17v66.09
		l-8.62,2.874l-34.195-50.862h-79.309v91.091h45.114l20.977-36.781h8.907v87.355l-11.494,5.747l-18.102-43.391h-45.402v95.976
		h78.159l38.218-56.608l8.62,2.872v71.841L705.935,744.607z"/>
	<path d="M962.543,548.921v195.687h-15.806L810.245,571.908v146.263l30.173,14.942l-5.748,11.492h-67.239v-8.908l27.012-21.263
		v-168.1l-29.885-16.092l5.747-11.494h43.39l133.045,168.388V545.186l-29.886-14.942l5.749-11.494h67.238v8.909L962.543,548.921z"/>
</g>
<g>
	<g>
		<path d="M529.35,2310.16l14.494,18.359l-74.407,58.46c-16.911,3.383-33.338,3.866-46.382,3.866c-56.043,0-96.629-38.651-96.629-86
			c0-11.112,1.932-21.258,5.315-31.405l-143.493,113.54c-18.842,3.382-36.718,3.865-54.594,3.865
			c-70.538,0-120.785-58.944-120.785-134.312c0-84.067,87.932-151.224,155.088-151.224c33.337,0,59.426,30.438,65.708,53.628
			c27.056-30.438,64.741-53.628,97.595-53.628c56.044,0,78.752,40.102,136.729,40.102c22.226,0,53.149-17.394,53.149-42.519
			c0-24.157-27.06-46.863-69.577-63.773v-14.979l56.047-20.775c15.944,15.943,47.348,59.909,47.348,88.417
			c0,50.245-74.889,108.705-108.225,108.705c-9.181,0-17.877-0.483-26.09-1.934c-21.259,15.944-31.406,40.102-31.406,83.101
			c0,37.686,20.292,68.123,61.842,68.123C467.021,2349.777,491.662,2339.633,529.35,2310.16z M253.472,2306.779l143.977-113.056
			c-40.583-11.112-66.673-32.854-101.943-32.854c-19.324,0-37.685,4.83-61.841,26.09c-10.629,43.967-61.843,76.336-120.787,113.057
			l-10.147-19.328c56.529-34.785,67.158-65.223,67.158-93.728c0-23.191-17.393-41.067-34.787-41.067
			c-38.652,0-59.426,29.955-59.426,87.449c0,61.842,27.54,116.438,86,116.438C181.967,2349.777,208.057,2343.014,253.472,2306.779z"
			/>
		<path d="M810.047,2142.512v74.402h-18.359c-24.641-31.888-58.46-51.696-93.73-51.696c-29.954,0-44.932,27.056-44.932,77.785
			c0,57.013,24.641,106.774,76.337,106.774c15.943,0,40.583-10.146,78.267-39.617l14.495,18.359l-74.403,58.46
			c-16.91,3.383-33.338,3.866-46.382,3.866c-64.739,0-111.122-55.079-111.122-124.652c0-78.27,76.336-141.56,135.764-141.56
			C753.036,2124.634,794.587,2133.814,810.047,2142.512z"/>
		<path d="M972.858,2348.329c0,23.674-24.641,42.517-43.483,42.517c-19.325,0-33.336-16.428-33.336-37.201
			c0-23.675,24.64-42.519,43.481-42.519C959.33,2311.127,972.858,2327.553,972.858,2348.329z"/>
	</g>
	<g>
		<path d="M133.887,2680.442H18.814v-11.732l36.719-28.77v-146.872l-40.504-13.626l7.571-15.142h115.074v11.735l-36.718,28.768
			v146.871l40.502,13.627L133.887,2680.442z"/>
		<path d="M414.374,2565.748c0,76.463-32.933,140.812-178.289,214.627l-9.084-15.52c100.688-65.107,138.162-122.645,138.162-181.315
			c0-48.454-22.711-91.228-71.164-91.228c-30.661,0-46.56,20.441-46.56,61.322c0,48.454,34.446,79.87,75.328,93.878l-11.734,17.032
			c-64.351,0-112.803-40.125-112.803-93.12c0-54.509,59.808-110.909,117.723-110.909
			C373.872,2460.516,414.374,2507.076,414.374,2565.748z"/>
		<path d="M645.276,2657.354v81.76l-45.425,22.336v-104.096H459.791v-11.736l140.061-169.961l45.425-22.334v177.154h57.915
			l-13.25,26.877H645.276L645.276,2657.354z M599.852,2512.753l-94.634,117.725h94.634V2512.753z"/>
		<path d="M970.433,2565.748c0,65.864-73.436,118.48-129.079,118.48c-59.809,0-102.203-46.182-102.203-105.232
			c0-65.865,73.434-118.48,129.078-118.48C928.414,2460.516,970.433,2507.076,970.433,2565.748z M788.358,2560.826
			c0,48.453,23.848,91.605,74.95,91.605c39.366,0,57.914-23.469,57.914-68.892c0-48.454-23.847-91.228-74.949-91.228
			C806.905,2492.312,788.358,2515.781,788.358,2560.826z"/>
	</g>
	<g>
		<path d="M175.921,2915.727v55.297h-13.646c-18.312-23.699-43.447-38.423-69.66-38.423c-22.262,0-33.393,20.108-33.393,57.812
			c0,42.371,18.312,79.354,56.733,79.354c11.85,0,30.162-7.539,58.17-29.442l10.774,13.644l-55.299,43.45
			c-12.566,2.512-24.775,2.871-34.471,2.871c-48.116,0-82.587-40.934-82.587-92.643c0-58.17,56.734-105.208,100.899-105.208
			C133.549,2902.44,164.432,2909.262,175.921,2915.727z"/>
		<path d="M346.121,3097.418c-12.568,2.512-24.777,2.871-34.471,2.871c-48.116,0-82.588-40.933-82.588-92.64
			c0-58.17,61.044-105.209,108.083-105.209c46.32,0,71.813,40.576,71.813,98.026H276.101c2.874,38.063,21.185,69.303,56.375,69.303
			c13.645,0,34.47-9.336,66.43-36.267l10.772,13.646L346.121,3097.418z M275.742,2985.746h84.023
			c-5.027-30.163-8.619-53.143-43.447-53.143C290.104,2932.604,276.818,2950.915,275.742,2985.746z"/>
		<path d="M547.562,3096.7H447.377v-11.131l31.958-25.136v-220.832l-31.958-22.262v-11.131l61.407-22.981h13.645v286.539
			l32.316,12.569L547.562,3096.7z"/>
		<path d="M627.992,2962.765c0,17.596-18.313,31.599-32.316,31.599c-14.364,0-24.775-12.209-24.775-27.649
			c0-17.594,18.31-31.599,32.314-31.599C617.938,2935.115,627.992,2947.324,627.992,2962.765z"/>
		<path d="M751.511,3096.7H651.328v-11.131l31.959-25.136v-220.832l-31.959-22.262v-11.131l61.404-22.981h13.645v286.539
			l32.316,12.569L751.511,3096.7z"/>
		<path d="M978.083,3096.7h-68.225v-31.239l-40.575,31.957c-5.386,2.153-12.927,2.871-17.955,2.871
			c-44.884,0-58.527-27.648-58.527-52.424c0-17.233,12.924-34.471,35.906-49.193h81.15v-22.98c0-33.035-20.109-42.73-46.321-42.73
			c-11.131,0-28.366,5.028-54.579,26.932l-10.773-13.645l51.709-40.936c12.566-2.514,24.775-2.872,34.47-2.872
			c43.09,0,68.583,21.544,68.583,62.479v104.847l32.318,12.569L978.083,3096.7z M909.86,3049.661v-36.267h-63.557
			c-6.824,7.899-8.619,15.44-8.619,24.058c0,16.877,9.336,32.314,25.135,32.314C873.232,3069.767,888.314,3066.898,909.86,3049.661z
			"/>
	</g>
</g>
<g>
	<path d="M327.536,1589.223l-27.716-9.069H26.196v-19.147l60.974-63.999v-93.221H9.566l10.582-20.665h67.02v-61.476
		c0-81.633,79.618-147.647,141.6-147.647c28.22,0,71.556,9.577,87.681,18.644v77.605h-19.148
		c-25.699-33.256-60.974-53.918-97.76-53.918c-34.77,0-51.903,28.219-51.903,81.129v85.666h98.768l-10.582,20.662h-88.186v18.137
		c0,31.748-17.132,69.541-44.343,97.254h192.998l16.126-40.816l15.118,5.041V1589.223z"/>
	<path d="M614.765,1537.823c0,71.557-66.517,124.47-220.216,175.363l-7.56-24.187c129.008-47.371,162.266-73.572,162.266-127.49
		c0-27.212-14.11-43.335-67.529-76.597v-12.599c37.296-44.343,46.366-60.468,46.366-82.135c0-35.274-22.676-59.97-54.934-59.97
		c-20.659,0-46.36,13.104-76.595,37.794l-15.117-19.149l72.563-57.444c6.552-2.522,14.109-4.034,21.164-4.034
		c65.013,0,118.426,33.26,118.426,74.076c-2.015,24.188-16.125,47.365-54.925,87.178
		C596.118,1484.913,614.765,1507.086,614.765,1537.823z"/>
	<path d="M983.621,1452.159c0,56.438-82.137,133.033-137.062,133.033c-94.737,0-161.253-53.412-161.253-119.932
		c0-35.274,30.235-66.012,95.239-114.892c-37.793-25.7-68.53-55.43-68.53-97.257c0-49.887,76.091-117.912,129.001-117.912
		c67.523,0,113.382,42.327,113.382,91.208c-2.522,27.212-15.117,53.918-72.564,109.348
		C933.232,1365.992,983.621,1398.746,983.621,1452.159z M919.123,1475.34c0-47.368-60.978-77.099-116.908-111.365
		c-44.849,36.786-51.398,53.921-51.398,77.099c0,57.951,46.357,108.844,98.261,108.844
		C892.416,1549.917,919.123,1513.638,919.123,1475.34z M776.516,1229.935c0,39.306,38.802,66.012,83.145,92.721
		c31.244-39.307,34.265-51.903,34.265-72.563c0-45.354-27.212-79.617-65.005-79.617
		C799.695,1170.475,776.516,1195.668,776.516,1229.935z"/>
</g>
<g>
	<path d="M17.688,1843.038c0-23.318,33.887-54.096,57.825-54.096c19.275,0,49.121,5.907,60.312,11.504v47.875h-11.813
		c-13.058-25.182-31.089-40.726-49.743-40.726c-13.368,0-21.45,8.083-21.45,18.032c0,30.466,89.224,41.97,89.224,80.52
		c0,23.629-35.751,54.095-59.69,54.095c-20.519,0-54.405-5.906-66.219-11.503v-47.877h11.814
		c14.612,26.115,36.062,40.728,55.959,40.728c13.99,0,23.005-8.394,23.005-18.032C106.913,1895.268,17.688,1881.899,17.688,1843.038
		z"/>
	<path d="M239.352,1933.815l27.98,10.883l-6.218,12.436h-86.738v-9.639l27.668-21.762v-94.511l-44.768,46.013v-17.721l44.768-47.877
		v-77.101l-27.668-19.274v-9.638l53.162-19.898h11.813v104.771l41.97-45.389v20.829l-41.97,45.078V1933.815z"/>
	<path d="M475.317,1957.134h-59.068V1924.8l-39.483,32.955c-5.595,2.176-10.571,2.487-17.099,2.487
		c-28.291,0-46.011-18.652-46.011-47.876v-74.303l-27.669-16.168v-9.636l53.162-26.115h11.813v110.677
		c0,23.006,6.219,30.777,24.249,30.777c10.882,0,22.695-2.486,41.038-17.721v-71.814l-27.67-16.168v-9.636l53.163-26.115h11.813
		v147.671l27.981,10.883L475.317,1957.134z"/>
	<path d="M633.871,1919.827l13.368-25.492l9.327,3.107v65.287l-17.099-5.596H514.179v-11.813l104.458-115.962h-78.654
		l-12.436,22.385l-9.326-3.11v-62.177l17.097,5.596h125.291v11.813l-103.838,115.962H633.871z M564.231,1720.235
		c0-15.232,15.854-27.357,27.979-27.357c12.746,0,21.451,10.569,21.451,23.938c0,15.235-15.854,27.357-27.979,27.357
		C573.247,1744.173,564.231,1733.605,564.231,1720.235z"/>
	<path d="M863.617,1801.69l-78.653,155.443l-64.665,82.074l-11.813-9.326c34.509-37.307,43.524-57.825,43.524-96.375l-39.172-94.821
		l-28.912-16.79v-9.636l53.16-26.115l11.815,46.944l37.929,92.645l43.834-91.09l-41.348-30.158l6.217-12.434h68.084V1801.69
		L863.617,1801.69z"/>
	<path d="M950.979,1933.815l27.981,10.883l-6.219,12.436h-86.738v-9.639l27.67-21.762v-94.511l-44.77,46.013v-17.721l44.77-47.877
		v-77.101l-27.67-19.274v-9.638l53.162-19.898h11.813v104.771l41.97-45.389v20.829l-41.97,45.078V1933.815L950.979,1933.815z"/>
</g>
<g>
	<path d="M57.705,4435.181H14.452v-4.41l13.802-10.813v-55.204l-15.225-5.123l2.846-5.691h43.252v4.411l-13.801,10.812v55.204
		l15.225,5.123L57.705,4435.181z"/>
	<path d="M148.481,4437.741l-7.826-2.561h-62.46v-4.41c35.712-29.737,44.392-39.839,44.392-49.229
		c0-9.818-7.399-16.931-18.354-16.931c-4.411,0-11.24,1.991-21.626,10.671l-4.269-5.407l20.488-16.22
		c3.273-0.995,6.83-1.139,9.391-1.139c19.919,0,32.867,8.395,32.867,20.914c0,7.969-9.675,21.913-36.566,44.535h35.144l4.553-11.524
		l4.269,1.422L148.481,4437.741L148.481,4437.741z"/>
	<path d="M208.67,4328.898c0,15.08-14.939,24.898-27.745,24.898c-12.378,0-19.351-9.249-19.351-19.493
		c0-14.796,14.797-24.758,27.745-24.758C201.698,4309.546,208.67,4318.652,208.67,4328.898z M172.958,4329.75
		c0,7.114,5.122,14.941,13.091,14.941c5.975,0,11.24-4.27,11.24-11.383c0-6.687-4.695-14.654-13.232-14.654
		C178.222,4318.652,172.958,4322.495,172.958,4329.75z"/>
	<path d="M326.625,4423.229c0,20.204-18.78,35.144-62.176,49.514l-2.134-6.83c36.423-13.374,45.815-20.772,45.815-35.997
		c0-7.683-3.985-12.236-19.066-21.626v-3.557c10.528-12.522,13.09-17.074,13.09-23.192c0-9.959-6.402-16.931-15.509-16.931
		c-5.833,0-13.089,3.698-21.625,10.671l-4.269-5.407l20.487-16.22c1.851-0.713,3.984-1.139,5.977-1.139
		c18.354,0,33.436,9.389,33.436,20.914c-0.568,6.83-4.553,13.376-15.509,24.616C321.36,4408.29,326.625,4414.55,326.625,4423.229z"
		/>
	<path d="M410.573,4426.501v30.733l-17.073,8.395v-39.128h-52.645v-4.411l52.645-63.882l17.073-8.395v66.586h21.769l-4.979,10.102
		H410.573z M393.5,4372.15l-35.571,44.249H393.5V4372.15z"/>
	<path d="M478.447,4326.764l-39.697,40.123l-5.692-2.848l23.62-43.394l19.066,2.702L478.447,4326.764z"/>
	<path d="M592.129,4423.229c0,20.204-18.781,35.144-62.175,49.514l-2.135-6.83c36.425-13.374,45.815-20.772,45.815-35.997
		c0-7.683-3.983-12.236-19.066-21.626v-3.557c10.529-12.522,13.092-17.074,13.092-23.192c0-9.959-6.404-16.931-15.509-16.931
		c-5.835,0-13.091,3.698-21.628,10.671l-4.268-5.407l20.488-16.22c1.848-0.713,3.982-1.139,5.977-1.139
		c18.354,0,33.436,9.389,33.436,20.914c-0.568,6.83-4.554,13.376-15.508,24.616C586.865,4408.29,592.129,4414.55,592.129,4423.229z"
		/>
	<path d="M678.64,4437.741l-7.824-2.561h-62.462v-4.41c35.712-29.737,44.391-39.839,44.391-49.229
		c0-9.818-7.399-16.931-18.354-16.931c-4.411,0-11.241,1.991-21.628,10.671l-4.268-5.407l20.488-16.22
		c3.272-0.995,6.83-1.139,9.391-1.139c19.919,0,32.867,8.395,32.867,20.914c0,7.969-9.676,21.913-36.567,44.535h35.145l4.554-11.524
		l4.268,1.422V4437.741z"/>
	<path d="M721.47,4424.083c0,6.972-7.256,12.521-12.805,12.521c-5.691,0-9.816-4.838-9.816-10.956
		c0-6.972,7.256-12.521,12.804-12.521C717.485,4413.127,721.47,4417.965,721.47,4424.083z"/>
	<path d="M810.822,4437.741l-7.825-2.561h-62.461v-4.41c35.712-29.737,44.393-39.839,44.393-49.229
		c0-9.818-7.401-16.931-18.355-16.931c-4.411,0-11.241,1.991-21.627,10.671l-4.269-5.407l20.488-16.22
		c3.272-0.995,6.829-1.139,9.392-1.139c19.918,0,32.865,8.395,32.865,20.914c0,7.969-9.675,21.913-36.565,44.535h35.144
		l4.554-11.524l4.268,1.422V4437.741z"/>
	<path d="M889.365,4423.229c0,27.175-33.72,40.123-62.176,49.514l-2.135-6.83c39.27-14.37,45.813-21.911,45.813-35.997
		c0-10.814-6.402-17.643-42.684-33.578l9.106-42.401h41.403l4.555-11.523l4.268,1.424v29.878l-7.825-2.561h-40.267l-2.277,11.666
		C879.547,4401.602,889.365,4410.992,889.365,4423.229z"/>
	<path d="M958.375,4326.764l-39.697,40.123l-5.691-2.848l23.619-43.394l19.064,2.702L958.375,4326.764z M993.944,4326.764
		l-39.695,40.123l-5.692-2.848l23.62-43.394l19.063,2.702L993.944,4326.764z"/>
</g>
<g>
	<path d="M100.792,4586.66v8.878H61.591v81.652l30.321,9.313l-4.333,8.662H16.327v-6.715l19.276-15.159v-77.754H10.045v-8.878
		h25.557v-19.276c0-35.086,36.818-63.458,65.19-63.458c14.727,0,35.736,5.415,42.016,8.878c5.848,3.248,8.447,8.882,8.447,14.945
		c0,9.53-9.314,17.975-17.76,17.975c-4.764,0-8.879-1.948-12.128-8.879c-5.848-12.777-12.561-14.728-33.137-14.728
		c-17.976,0-26.639,12.13-26.639,34.869v29.674H100.792L100.792,4586.66z M222.511,4633.875c0,35.085-36.818,63.458-65.19,63.458
		c-29.022,0-49.814-24.69-49.814-55.877c0-35.087,36.819-63.459,65.191-63.459C201.936,4577.997,222.511,4602.903,222.511,4633.875z
		 M194.355,4644.054c0-25.557-11.044-47.865-34.22-47.865c-16.459,0-24.472,12.13-24.472,34.869
		c0,25.557,11.044,48.082,34.219,48.082C186.342,4679.138,194.355,4667.013,194.355,4644.054z M178.762,4529.915
		c0-9.961,9.963-17.975,17.542-17.975c8.013,0,13.428,6.929,13.428,15.811c0,9.961-9.962,17.975-17.543,17.975
		C184.393,4545.726,178.762,4538.795,178.762,4529.915z"/>
	<path d="M348.772,4592.724l-14.294,17.977h-8.229c-1.3-7.148-4.115-9.963-9.313-9.963c-5.416,0-12.128,1.731-22.091,11.91v64.543
		l30.32,9.313l-4.332,8.662h-71.254v-6.715l19.274-15.159v-61.075l-19.274-11.265v-6.715l37.034-18.19l6.714,26.638l22.525-22.955
		c3.898-1.518,7.363-1.733,11.91-1.733C337.294,4577.997,344.874,4583.412,348.772,4592.724z"/>
	<path d="M446.232,4586.66v8.878H407.03v81.652l30.321,9.313l-4.332,8.662h-71.254v-6.715l19.276-15.159v-77.754h-25.557v-8.878
		h25.557v-19.276c0-35.086,36.818-63.458,65.19-63.458c14.728,0,35.737,5.415,42.018,8.878c5.847,3.248,8.447,8.882,8.447,14.945
		c0,9.53-9.313,17.975-17.76,17.975c-4.764,0-8.88-1.948-12.128-8.879c-5.848-12.777-12.562-14.728-33.136-14.728
		c-17.977,0-26.64,12.13-26.64,34.869v29.674H446.232L446.232,4586.66z M570.549,4695.166h-41.149v-18.843l-24.474,19.275
		c-3.248,1.299-7.796,1.732-10.829,1.732c-27.073,0-35.304-16.677-35.304-31.619c0-10.398,7.798-20.793,21.658-29.673h48.948
		v-13.861c0-19.925-12.13-25.773-27.938-25.773c-6.715,0-17.111,3.032-32.92,16.243l-6.498-8.231l31.187-24.687
		c7.581-1.518,14.944-1.733,20.79-1.733c25.991,0,41.367,12.993,41.367,37.685v63.242l19.492,7.581L570.549,4695.166z
		 M529.399,4666.793v-21.874h-38.335c-4.115,4.765-5.199,9.313-5.199,14.51c0,10.182,5.632,19.494,15.161,19.494
		C507.309,4678.923,516.403,4677.19,529.399,4666.793z M524.202,4529.915c0-9.961,9.961-17.975,17.542-17.975
		c8.015,0,13.429,6.929,13.429,15.811c0,9.961-9.963,17.975-17.544,17.975C529.832,4545.726,524.202,4538.795,524.202,4529.915z"/>
	<path d="M691.396,4592.724l-14.295,17.977h-8.229c-1.299-7.148-4.114-9.963-9.311-9.963c-5.417,0-12.13,1.731-22.094,11.91v64.543
		l30.321,9.313l-4.331,8.662h-71.255v-6.715l19.275-15.159v-61.075l-19.275-11.265v-6.715l37.035-18.19l6.714,26.638l22.523-22.955
		c3.898-1.518,7.364-1.733,11.913-1.733C679.918,4577.997,687.497,4583.412,691.396,4592.724z"/>
	<path d="M760.699,4695.166h-60.426v-6.713l19.275-15.161v-133.196l-19.275-13.431v-6.711l37.035-13.861h8.23v172.83l19.493,7.581
		L760.699,4695.166z"/>
	<path d="M844.945,4695.166h-60.425v-6.713l19.275-15.161v-63.24l-19.275-13.429v-6.715l37.035-13.861h8.229v102.878l19.492,7.579
		L844.945,4695.166z M796.433,4530.133c0-10.613,11.044-19.061,19.489-19.061c8.882,0,14.945,7.365,14.945,16.679
		c0,10.611-11.045,19.059-19.492,19.059C802.713,4546.81,796.433,4539.445,796.433,4530.133z"/>
	<path d="M963.413,4595.538c4.114,5.634,6.279,12.348,6.279,19.493c0,19.709-18.191,38.552-39.85,45.05
		c-3.465,3.684-5.632,8.013-5.632,12.346c0,12.346,54.794,18.191,54.794,37.901c0,12.994-28.371,42.016-52.845,42.016
		c-18.41,0-45.48-8.231-56.31-12.345v-33.354h8.229c14.942,18.408,30.753,30.536,53.062,30.536c12.562,0,21.01-8.662,21.01-15.16
		c0-17.327-54.58-23.173-54.58-39.634c0-7.365,12.128-15.595,23.175-20.142c-2.385,0.216-4.765,0.433-7.146,0.433
		c-23.392,0-41.585-17.111-41.585-37.035c0-24.474,28.372-47.647,56.312-47.647c10.179,0,19.491,3.248,26.638,8.664h34.003v8.878
		H963.413z M945.871,4625.21c0-17.326-12.13-29.021-30.322-29.021c-12.562,0-19.709,6.064-19.709,18.842
		c0,17.544,12.129,29.456,30.104,29.456C938.723,4644.486,945.871,4638.206,945.871,4625.21z"/>
</g>
<g>
	<path d="M15.589,4157.626c0-21.761,36.976-51.554,62.542-51.554c20.071,0,51.976,5.072,64.231,9.932v49.441h-27.045
		c-10.144-22.187-23.663-36.132-38.032-36.132c-8.664,0-13.524,6.34-13.524,14.369c0,31.271,84.938,43.525,84.938,85.569
		c0,21.974-39.511,51.554-65.92,51.554c-20.919,0-55.57-5.072-68.246-9.928v-49.441h27.045
		c11.197,22.818,27.044,36.129,42.256,36.129c10.566,0,16.691-6.763,16.691-14.368
		C100.525,4213.829,15.589,4199.884,15.589,4157.626z"/>
	<path d="M238.29,4259.468l-8.454,16.902h-71.625v-15.001l18.805-16.481v-106.91l-18.805-12.258v-15l44.581-18.804h16.48v161.634
		L238.29,4259.468z M305.899,4276.37h-48.385l-31.27-57.049l35.495-27.254l-28.945-13.523l8.451-16.904h67.4v15.003l-40.567,32.327
		l24.933,42.256l21.339,8.242L305.899,4276.37z"/>
	<path d="M402.881,4259.468l-8.451,16.902h-71.625v-15.001l18.804-16.481v-41.201l-18.804-12.254v-15.003l44.581-18.804h16.48
		v95.924L402.881,4259.468z M338.652,4129.313l22.606-41.412l45.214,4.017l6.128,13.522l-59.583,30.425L338.652,4129.313z"/>
	<path d="M472.396,4198.194v53.031l33.812,8.242l-8.456,16.902h-86.415v-15.003l18.804-16.479v-41.201l-18.804-12.254v-15.003
		l48.806-18.804l8.449,21.974l17.962-18.382c2.323-1.057,5.916-1.691,9.505-1.691c18.389,0,31.276,8.029,35.713,21.551
		l-23.876,30.002h-16.484c0-12.043-1.9-16.69-7.607-16.69C480.848,4194.391,476.622,4195.235,472.396,4198.194z"/>
	<path d="M668.266,4203.899c0,39.51-35.072,74.583-74.372,74.583c-33.384,0-58.314-23.665-58.314-55.777
		c0-30.005,34.86-61.063,69.724-63.177c-5.282-7.605-11.831-14.79-19.438-20.916l-43.104,23.029l-4.015-7.818l39.088-20.916
		c-12.254-8.24-26.62-14.369-42.681-18.171v-15.003l41.835-9.93c14.156,5.705,27.256,13.521,39.087,22.606l42.47-22.606l4.226,7.818
		l-39.301,20.916C650.518,4142.412,668.266,4173.894,668.266,4203.899z M622.628,4215.942c0-9.931-1.267-19.227-3.804-28.102
		h-22.184c-10.142,0-15.425,8.662-15.425,24.721c0,23.027,9.72,37.606,24.935,37.606
		C617.769,4250.168,622.628,4240.027,622.628,4215.942z"/>
	<path d="M751.305,4276.37h-71.629v-15.001l18.805-16.481v-41.201l-18.805-12.254v-15.003l44.584-18.804h16.479v95.924l19.017,5.916
		L751.305,4276.37z M688.129,4119.594c0-14.364,17.96-25.987,31.693-25.987c14.365,0,24.298,10.143,24.298,22.821
		c0,14.154-17.961,25.776-31.694,25.776C698.48,4142.202,688.129,4132.271,688.129,4119.594z"/>
	<path d="M770.53,4196.292c0-15.848,28.102-36.764,47.752-36.764c15.636,0,40.146,4.016,49.44,7.818v36.766h-16.479
		c-6.762-12.047-17.325-19.231-27.468-19.231c-4.015,0-6.129,2.747-6.129,5.918c0,12.255,55.146,26.833,55.146,50.921
		c0,16.058-29.368,36.763-49.018,36.763c-16.482,0-43.736-4.013-53.455-7.817v-38.877h16.48
		c8.029,13.736,20.706,21.342,31.693,21.342c4.435,0,7.183-2.747,7.183-5.915C825.677,4236.014,770.53,4220.591,770.53,4196.292z"/>
	<path d="M964.281,4276.791c-7.605,1.481-14.578,1.691-20.283,1.691c-29.581,0-42.257-12.042-42.257-37.608v-55.779h-22.82v-12.889
		l48.598-50.919h16.479v46.692h38.031v17.115h-38.031v51.975c0,9.088,5.916,12.891,16.481,12.891c5.704,0,10.352-1.057,18.806-4.436
		l6.336,14.365L964.281,4276.791z"/>
</g>
<g>
	<path d="M123.155,3922.256c0-20.326-9.651-36.549-30.799-36.549c-6.983,0-13.348,2.258-18.893,6.159v117.868l35.728,7.801
		l-6.776,13.348H16.994v-11.498l19.301-15.197v-114.375l-22.792-6.982l6.775-13.347h34.086c29.363,0,38.809-2.054,55.238-2.054
		c32.647,0,54.21,20.74,54.21,47.641c0,30.595-40.659,56.469-73.512,54.621l-9.036-5.545l6.777-13.348H99.54
		C114.122,3950.801,123.155,3940.121,123.155,3922.256z"/>
	<path d="M290.093,4030.883h-46.818v-17.866l-23.205,18.276c-3.077,1.231-7.39,1.643-10.267,1.643
		c-28.747,0-37.165-17.454-37.165-32.854c0-10.678,6.776-21.148,19.097-29.978h51.539v-3.492c0-15.811-9.856-21.973-22.587-21.973
		c-7.596,0-19.506,2.465-37.577,11.297l-6.162-11.706l28.544-22.997c9.034-2.672,17.453-3.081,24.434-3.081
		c30.188,0,48.255,13.961,48.255,40.86v51.338l18.481,7.186L290.093,4030.883z M243.275,3996.797v-13.143h-33.059
		c-2.258,3.286-3.079,5.749-3.079,9.443c0,6.777,4.927,12.117,13.141,12.117C225.411,4005.215,232.803,4003.775,243.275,3996.797z"
		/>
	<path d="M361.343,3953.88v55.44l31.212,8.215l-6.571,13.348h-77.825v-11.498l18.275-15.401v-46.613l-18.275-11.499v-11.5
		l42.711-18.07l7.803,22.795l18.686-19.303c2.671-1.027,6.16-1.642,10.062-1.642c14.375,0,25.052,6.98,29.159,18.478l-19.715,24.641
		h-12.934c-0.413-9.854-2.67-13.756-7.804-13.756C372.226,3947.514,367.299,3948.745,361.343,3953.88z"/>
	<path d="M539.989,4030.883h-46.821v-17.866l-23.205,18.276c-3.079,1.231-7.391,1.643-10.267,1.643
		c-28.747,0-37.167-17.454-37.167-32.854c0-10.678,6.776-21.148,19.098-29.978h51.541v-3.492c0-15.811-9.856-21.973-22.587-21.973
		c-7.598,0-19.51,2.465-37.579,11.297l-6.16-11.706l28.542-22.997c9.035-2.672,17.453-3.081,24.436-3.081
		c30.188,0,48.26,13.961,48.26,40.86v51.338l18.481,7.186L539.989,4030.883z M493.168,3996.797v-13.143h-33.061
		c-2.258,3.286-3.081,5.749-3.081,9.443c0,6.777,4.93,12.117,13.143,12.117C475.303,4005.215,482.694,4003.775,493.168,3996.797z"/>
	<path d="M688.653,4030.883h-46.614v-15.196l-19.712,15.606c-5.75,1.438-10.678,1.643-15.194,1.643
		c-27.721,0-47.231-23.615-47.231-53.799c0-34.086,37.988-60.985,66.943-60.985c5.545,0,10.679,1.437,15.194,4.31v-30.801
		l-18.274-12.115v-11.498l40.248-16.43h12.936v159.756l18.479,6.162L688.653,4030.883z M642.039,3999.463v-39.219
		c-1.437-10.062-10.47-18.276-27.103-18.276c-12.116,0-18.07,9.242-18.07,27.517c0,19.51,7.186,35.934,22.793,35.934
		C627.05,4005.42,634.237,4003.983,642.039,3999.463z"/>
	<path d="M778.383,4017.535l-6.775,13.348h-64.887v-11.498l18.274-15.401v-47.637l-18.274-12.117v-11.501l40.245-16.428h12.938
		v95.074L778.383,4017.535z M722.121,3887.965l21.971-40.246l37.783,3.902l5.133,10.061l-52.978,31.828L722.121,3887.965z"/>
	<path d="M794.602,3953.88c0-15.399,25.462-35.729,43.326-35.729c14.17,0,36.552,3.901,44.97,7.595v34.295h-12.938
		c-7.391-13.554-18.274-21.767-29.157-21.767c-5.749,0-9.033,3.695-9.033,8.009c0,14.988,55.646,26.69,55.646,50.924
		c0,15.604-26.694,35.729-44.561,35.729c-14.99,0-40.04-3.902-48.871-7.597v-35.524h12.938c8.417,14.783,21.559,22.996,33.06,22.996
		c6.159,0,10.062-3.695,10.062-8.008C850.043,3991.045,794.602,3978.316,794.602,3953.88z"/>
	<path d="M991.518,3898.643c0,17.455-35.316,29.157-35.316,39.425c0,4.109,4.723,7.598,11.086,10.678v11.499l-26.078,15.811
		c-11.292-6.361-21.354-13.756-21.354-23.818c0-17.863,33.881-29.771,33.881-41.069c0-7.389-12.937-19.301-24.846-19.301
		c-5.135,0-13.348,1.644-25.463,6.778l-6.159-11.502l25.255-20.121c7.6-1.438,14.99-1.643,20.946-1.643
		C963.798,3865.379,991.518,3883.652,991.518,3898.643z M966.671,4010.555c0,12.321-14.782,22.381-26.283,22.381
		c-11.498,0-19.917-8.623-19.917-19.714c0-12.524,14.784-22.587,26.078-22.587C958.457,3990.635,966.671,3999.463,966.671,4010.555z
		"/>
</g>
<g>
	<path d="M193.206,3545.354c0,53.518-57.435,96.266-101.489,96.266c-45.686,0-78.319-37.2-78.319-84.847
		c0-53.192,57.434-95.941,101.489-95.941C160.899,3460.832,193.206,3498.36,193.206,3545.354z M63,3541.111
		c0,37.2,15.664,68.855,47.644,68.855c22.19,0,33.286-16.645,33.286-49.277c0-36.877-15.664-68.529-47.971-68.529
		C74.095,3492.16,63,3509.13,63,3541.111z"/>
	<path d="M578.61,3638.356h-66.899v-127.271l-26.762-20.557h-56.784v117.807l47.318,13.705l-8.159,16.315H382.48v-147.827h-83.869
		v117.807l47.32,13.705l-8.161,16.315h-113.89v-13.379l29.045-23.498v-110.95h-36.877v-16.645h36.877v-17.949
		c0-53.189,58.738-95.939,103.119-95.939c18.601,0,45.034,6.2,62.331,13.707c16.972-14.688,37.855-23.498,55.803-23.498
		c24.149,0,60.377,6.525,71.473,12.399c9.463,5.222,14.356,14.359,14.356,24.803c0,17.292-19.251,31.325-34.265,31.325
		c-8.811,0-17.295-4.242-23.496-15.012c-10.447-18.928-19.912-22.518-46.017-22.518c-18.274,0-28.066,16.646-28.066,47.318v45.361
		h60.045l53.524-15.989h15.664v153.375l29.371,10.769L578.61,3638.356z M382.48,3446.148c0-12.075,2.611-23.498,7.177-34.268
		c-14.685-13.379-36.223-20.885-53.844-20.885c-20.559,0-37.202,16.643-37.202,47.319v35.569h83.869V3446.148z"/>
	<path d="M772.12,3472.906v54.172h-15.664c-16.316-21.538-38.834-34.918-62.329-34.918c-18.274,0-28.065,17.297-28.065,48.951
		c0,36.55,15.664,67.877,48.298,67.877c11.421,0,29.043-6.201,56.127-24.476l9.791,15.011l-48.949,38.508
		c-13.055,3.264-25.78,3.589-35.896,3.589c-45.688,0-78.32-37.199-78.32-84.846c0-53.192,53.52-95.942,94.964-95.942
		C731.328,3460.832,761.024,3467.033,772.12,3472.906z"/>
	<path d="M931.363,3638.031c-13.38,3.264-26.107,3.588-36.55,3.588c-45.688,0-78.321-37.2-78.321-84.847
		c0-53.192,57.436-95.941,101.491-95.941c43.401,0,67.876,36.876,67.55,92.679H866.097c3.261,31.327,18.602,55.479,47.642,55.479
		c12.729,0,32.31-7.509,62.332-29.045l9.789,15.01L931.363,3638.031z M865.443,3536.868h70.813
		c-4.243-26.435-8.811-44.708-36.875-44.708C877.189,3492.16,866.421,3507.498,865.443,3536.868z"/>
</g>
<g>
	<path d="M134.028,3807.68H86.927v-5.328l14.517-10.518l-10.962-26.366h-49.17l-11.257,26.22l25.475,9.33l-3.407,6.662H6.504v-5.328
		l14.368-11.111l41.174-95.234l17.476-7.553l42.951,103.974l14.812,8.591L134.028,3807.68z M66.34,3707.263l-21.625,50.505h42.656
		L66.34,3707.263z"/>
	<path d="M232.376,3765.619c0,24.14-25.625,43.545-45.321,43.545c-8.295,0-15.257-3.704-20.439-9.926l-6.516,8.443h-6.369v-104.863
		l-13.184-9.184v-5.332l26.068-9.922h6.369v65.316l19.106-15.256c4.147-1.035,8.146-1.185,11.404-1.185
		C220.232,3727.259,232.376,3744.291,232.376,3765.619z M211.641,3772.727c0-16.736-5.332-31.548-16.143-31.548
		c-6.369,0-12.737,1.481-22.513,9.776v26.363c0,9.775,7.258,18.512,22.661,18.512
		C206.309,3795.831,211.641,3787.832,211.641,3772.727z"/>
	<path d="M342.87,3807.68h-29.178v-49.467c0-10.516-2.962-14.219-11.255-14.219c-5.333,0-11.109,1.184-19.847,7.848v44.287
		l13.329,4.889l-3.405,6.662h-42.36v-5.328l13.182-10.518v-40.139l-13.182-7.85v-5.333l26.362-12.588l5.185,18.808l20.439-16.291
		c2.518-0.887,5.036-1.185,8.293-1.185c13.776,0,22.514,8.886,22.514,22.81v46.062l13.33,4.887L342.87,3807.68z"/>
	<path d="M408.042,3807.83c-5.776,1.186-11.108,1.334-15.55,1.334c-20.291,0-34.807-16.885-34.807-38.363
		c0-24.141,25.623-43.542,45.322-43.542c19.55,0,30.363,16.735,30.215,41.321h-54.656c1.333,14.811,8.741,26.809,22.514,26.809
		c5.778,0,14.515-3.555,27.993-13.922l4.443,6.072L408.042,3807.83z M378.42,3761.767h33.474
		c-1.927-12.144-3.704-21.031-17.33-21.031C384.196,3740.735,378.865,3747.992,378.42,3761.767z"/>
	<path d="M522.687,3759.99c0,19.994,10.22,31.697,10.22,53.023c0,10.367-20.735,33.77-38.514,33.77
		c-12.737,0-31.545-7.407-39.1-11.109v-12.293l26.512-20.885c-16.588-1.926-28.289-16.734-28.289-34.951
		c0-22.217,23.697-40.286,42.063-40.286c11.114,0,21.479,1.479,32.883,1.479l4.446,6.223
		C526.389,3742.365,522.687,3750.215,522.687,3759.99z M514.244,3818.346c0-13.182-2.962-21.773-5.479-29.473l-36.885,29.177
		c7.555,10.811,15.849,17.476,26.068,17.476C507.578,3835.525,514.244,3826.639,514.244,3818.346z M474.25,3760.436
		c0,15.253,6.665,27.99,17.476,27.99c4.594,0,9.039-0.887,15.259-5.183c-1.184-3.851-1.925-7.555-1.925-11.702
		c0-8.145,4.443-16.289,9.924-23.105c-7.999-2.664-17.184-7.7-27.553-7.7C478.694,3740.735,474.25,3747.547,474.25,3760.436z"/>
	<path d="M632.586,3807.68h-29.327v-12.885l-16.736,13.182c-2.223,0.889-5.331,1.186-7.405,1.186
		c-18.959,0-24.585-11.701-24.585-22.068c0-7.258,5.184-14.367,14.514-20.588h34.213v-7.997c0-13.181-7.996-17.33-18.514-17.33
		c-4.738,0-12.144,2.075-23.4,10.517l-4.443-6.221l21.18-16.736c5.479-1.184,10.663-1.479,14.812-1.479
		c18.66,0,29.622,9.183,29.622,26.51v42.062l13.329,5.187L632.586,3807.68z M603.259,3787.242v-13.921h-25.77
		c-2.519,3.108-3.257,5.923-3.257,9.329c0,6.516,3.851,12.441,10.22,12.441C588.597,3795.094,594.668,3793.907,603.259,3787.242z"/>
	<path d="M718.049,3732.736v23.847h-6.369c-7.553-9.774-17.771-15.848-28.586-15.848c-8.74,0-13.182,7.999-13.182,22.956
		c0,17.032,7.26,31.697,22.662,31.697c5.037,0,12.738-2.962,24.733-11.553l4.444,6.221l-22.513,17.771
		c-5.629,1.186-10.958,1.334-15.256,1.334c-20.29,0-34.806-16.883-34.806-38.361c0-24.141,23.847-43.544,42.359-43.544
		C699.979,3727.259,713.16,3730.07,718.049,3732.736z"/>
	<path d="M780.85,3807.68h-42.36v-5.328l13.181-10.518v-41.473l-13.181-9.035v-5.33l26.068-10.071h6.367v70.204l13.33,4.889
		L780.85,3807.68z M746.339,3695.116c0-7.554,8.148-13.624,14.365-13.624c6.521,0,11.112,5.329,11.112,11.996
		c0,7.555-8.146,13.625-14.516,13.625C750.933,3707.113,746.339,3701.783,746.339,3695.116z"/>
	<path d="M879.047,3765.619c0,24.14-25.623,43.545-45.32,43.545c-20.291,0-34.808-16.885-34.808-38.363
		c0-24.141,25.624-43.542,45.324-43.542C864.68,3727.259,879.047,3744.291,879.047,3765.619z M819.655,3763.691
		c0,17.182,7.407,32.139,22.661,32.139c10.516,0,15.848-7.998,15.848-23.252c0-17.182-7.404-31.845-22.514-31.845
		C824.986,3740.735,819.655,3748.587,819.655,3763.691z M869.57,3682.675l-33.623,25.031l-6.517-3.108l15.848-29.031l21.329,2.816
		L869.57,3682.675z"/>
	<path d="M989.541,3807.68h-29.179v-49.467c0-10.516-2.963-14.219-11.256-14.219c-5.334,0-11.11,1.184-19.848,7.848v44.287
		l13.331,4.889l-3.407,6.662h-42.357v-5.328l13.179-10.518v-40.139l-13.179-7.85v-5.333l26.361-12.588l5.185,18.808l20.438-16.291
		c2.519-0.887,5.037-1.185,8.296-1.185c13.774,0,22.511,8.886,22.511,22.81v46.062l13.331,4.887L989.541,3807.68z"/>
</g>
<g>
	<path d="M78.728,3306.109l-3.941,7.665H15.457v-5.692l19.485-15.107v-137.488l-19.485-13.791v-5.691l36.342-13.355h7.225v175.58
		L78.728,3306.109z M148.784,3313.772h-35.467l-42.253-57.579l41.378-35.247l-19.703-15.544l3.723-7.662h50.133v5.692
		l-51.883,44.005l38.75,51.449l19.046,7.223L148.784,3313.772z"/>
	<path d="M332.248,3278.963l6.567,7.445l-35.029,28.021c-7.224,1.312-14.011,1.533-19.484,1.533
		c-15.762,0-29.337-8.979-37.655-22.988l-25.176,21.235c-5.035,1.313-12.042,1.753-16.859,1.753
		c-26.708,0-34.808-16.422-34.808-31.307c0-10.51,7.881-20.58,22.111-29.337h46.413v-0.438V3238.9
		c0-20.797-11.604-26.492-26.927-26.492c-6.569,0-16.64,3.065-32.185,17.297l-6.568-7.443l31.745-25.178
		c7.443-1.312,14.667-1.532,20.361-1.532c16.858,0,28.898,6.567,34.372,18.827c12.26-11.603,28.022-18.827,41.816-18.827
		c24.956,0,38.311,24.74,38.311,58.674h-74.435c1.312,24.3,12.042,44.661,32.183,44.661
		C304.665,3298.885,316.484,3292.975,332.248,3278.963z M242.268,3283.561c-2.408-6.35-3.723-13.354-4.162-20.8h-37.215
		c-4.599,5.256-5.693,10.29-5.693,15.765c0,10.51,6.566,20.359,17.731,20.359C219.281,3298.885,228.695,3296.915,242.268,3283.561z
		 M264.599,3246.343h46.63c-2.846-18.828-4.158-33.714-22.987-33.714C273.137,3212.629,265.255,3224.23,264.599,3246.343z"/>
	<path d="M465.139,3209.561l-13.355,16.641h-7.225c-1.312-6.569-4.378-9.193-9.415-9.193c-5.909,0-13.134,1.75-23.643,13.133v66.557
		l29.995,9.414l-3.724,7.663h-69.838v-5.692l19.485-15.105v-64.147l-19.485-11.165v-5.692l35.687-18.39l6.566,27.586l23.207-23.865
		c4.16-1.531,7.664-1.753,12.479-1.753C454.193,3195.55,461.198,3200.805,465.139,3209.561z"/>
	<path d="M539.358,3314.21c-3.94,1.532-8.1,1.753-11.162,1.753c-23.647,0-33.94-12.48-33.94-38.969v-64.804h-23.645v-8.32
		l40.506-47.944h7.225v48.383h39.408v7.882h-39.408v68.306c0,12.697,6.131,18.172,17.076,18.172c5.912,0,10.727-1.971,19.485-9.416
		l6.567,7.445L539.358,3314.21z"/>
	<path d="M645.541,3314.43c-6.787,1.314-13.793,1.533-19.048,1.533c-28.679,0-49.259-24.959-49.259-56.266
		c0-35.464,36.562-64.146,64.803-64.146c27.803,0,42.91,24.74,42.91,58.674h-81.222c1.312,24.3,12.697,44.661,35.465,44.661
		c8.102,0,20.58-5.91,39.627-23.426l6.568,7.662L645.541,3314.43z M603.506,3246.343h53.202
		c-3.505-18.828-5.257-33.714-27.587-33.714C612.481,3212.629,604.164,3224.23,603.506,3246.343z"/>
	<path d="M807.33,3212.19c4.38,5.913,6.789,13.137,6.789,20.798c0,20.142-18.392,39.408-40.283,45.755
		c-3.506,3.505-5.693,7.665-5.693,12.261c0,12.699,56.045,18.391,56.045,38.314c0,12.916-28.46,42.252-52.98,42.252
		c-18.171,0-45.1-8.319-55.827-12.479v-32.621h7.225c15.545,18.828,31.964,31.088,55.172,31.088c13.134,0,21.893-9.413,21.893-16.42
		c0-17.732-56.267-23.863-56.267-40.281c0-7.445,11.821-15.764,22.55-20.363c-2.409,0.219-4.815,0.439-7.223,0.439
		c-22.989,0-40.721-17.077-40.721-37.219c0-24.739,27.806-48.165,55.607-48.165c10.07,0,19.047,3.285,26.053,8.759h34.153v7.882
		H807.33L807.33,3212.19z M792.444,3243.277c0-18.171-12.7-30.648-31.747-30.648c-13.353,0-21.017,6.566-21.017,20.357
		c0,18.391,12.7,30.87,31.526,30.87C784.779,3263.856,792.444,3257.291,792.444,3243.277z"/>
	<path d="M987.95,3313.772h-39.847v-74.655c0-16.641-4.597-22.111-17.733-22.111c-8.757,0-17.733,1.752-32.619,13.793v67.43
		l19.702,7.881l-3.94,7.665h-59.329v-5.692l19.484-15.107v-64.146l-19.484-11.165v-5.692l35.686-18.39l7.005,29.117l31.964-25.396
		c3.941-1.531,7.224-1.753,11.604-1.753c19.484,0,31.744,13.139,31.744,33.717v68.962l19.703,7.881L987.95,3313.772z"/>
</g>
<g>
	<path d="M505.04,4971.283c0,24.381-12.938,51.749-34.333,83.594l18.908,14.43c12.937-15.426,22.889-29.357,29.356-39.807
		c37.319,9.454,65.184,42.295,65.184,86.082c0,58.715-50.256,91.555-110.961,91.555c-67.671,0-134.347-40.304-170.173-96.033
		c-32.84-50.754-38.313-113.448-30.85-162.709l63.69,30.85v15.426c-23.884,18.41-34.333,48.763-21.396,86.082
		c59.71-7.465,48.763-175.646,131.362-175.646C483.146,4905.105,505.04,4939.438,505.04,4971.283z M706.561,4877.738
		c0,80.109-111.956,102.999-146.289,141.811c-10.947-5.971-19.903-9.952-27.367-12.439c45.28-41.797,123.898-60.207,123.898-111.458
		c0-21.397-13.933-46.276-41.299-46.276c-20.899,0-33.837,14.431-33.837,36.324c0,18.41,9.455,34.83,20.401,42.792
		c-10.449,8.956-28.859,20.898-44.285,27.367c-4.976-5.474-15.922-24.88-15.922-48.267c0-51.748,53.24-90.062,102.004-90.062
		C681.184,4817.53,706.561,4839.922,706.561,4877.738z M675.711,4977.752c22.391,15.425,38.313,34.333,38.313,60.705
		c0,37.318-40.304,51.25-40.304,92.053c0,13.932,4.478,28.361,17.414,43.289l-51.748,23.885h-18.908
		c-4.975-9.953-11.444-24.383-11.444-42.793c0-49.26,63.69-61.699,63.69-92.053c0-10.946-17.415-22.391-66.178-29.357v-15.424
		C629.933,5002.133,654.314,4992.182,675.711,4977.752z"/>
</g>
<g>
</g>
<g>
</g>
<g>
</g>
<g>
</g>
<g>
</g>
<g>
</g>
<g>
</g>
<g>
</g>
<g>
</g>
<g>
</g>
<g>
</g>
<g>
</g>
<g>
</g>
<g>
</g>
<g>
</g>
</svg>
